<svg xmlns="http://www.w3.org/2000/svg" xmlns:xlink="http://www.w3.org/1999/xlink" version="1.1" id="Layer_1" x="0px" y="0px" width="252.921px" height="154.526px" viewBox="0 0 252.921 154.526" enable-background="new 0 0 252.921 154.526" xml:space="preserve">
<path fill="#2A2E41" d="M0.564,50.161l9.892-0.859l-0.591,2.03c-0.577,1.978-0.466,3.539,0.335,4.682  c0.8,1.145,2.208,1.717,4.225,1.717c1.952,0,3.65-0.468,5.089-1.404c1.439-0.937,2.394-2.211,2.864-3.824  c0.517-1.769,0.396-3.46-0.362-5.074c-0.76-1.611-2.549-3.849-5.368-6.712c-3.793-3.85-6.215-7.049-7.267-9.599  c-1.052-2.549-1.139-5.333-0.258-8.351c1.199-4.11,3.506-7.376,6.922-9.795c3.414-2.42,7.487-3.629,12.214-3.629  c4.725,0,8.086,1.223,10.084,3.668c1.995,2.446,2.395,5.725,1.196,9.833l-0.411,1.406l-9.891,0.859l0.455-1.561  c0.607-2.082,0.597-3.669-0.029-4.762c-0.626-1.092-1.824-1.638-3.587-1.638c-1.765,0-3.248,0.442-4.452,1.326  c-1.204,0.886-2.055,2.185-2.556,3.903c-0.501,1.716-0.354,3.369,0.445,4.955c0.796,1.589,2.559,3.863,5.286,6.83  c3.732,4.058,6.135,7.324,7.21,9.795c1.075,2.471,1.18,5.19,0.315,8.155c-0.76,2.602-2.113,4.917-4.059,6.947  c-1.947,2.028-4.316,3.616-7.108,4.76c-2.791,1.144-5.763,1.718-8.914,1.718c-3.152,0-5.788-0.574-7.912-1.718"/>
<path fill="#2A2E41" d="M4.331,63.819C2.206,62.675,0.763,61.087,0,59.059"/>
<polygon fill="#2A2E41" points="47.22,10.123 79.171,10.123 76.894,17.929 65.928,17.929 52.267,64.756 42.248,64.756   55.909,17.929 44.943,17.929 "/>
<path fill="#2A2E41" d="M91.118,64.755l-0.699-22.554H85.22l-6.58,22.554H68.62l15.938-54.632h15.692  c4.788,0,8.257,1.185,10.403,3.551c2.144,2.368,2.64,5.529,1.487,9.483l-1.753,6.009c-0.729,2.498-1.974,4.709-3.732,6.634  c-1.76,1.926-3.902,3.434-6.426,4.528l1.287,24.427H91.118z M87.497,34.395h5.199c1.952,0,3.593-0.44,4.925-1.327  c1.329-0.883,2.229-2.132,2.7-3.746l1.844-6.321c0.47-1.612,0.298-2.861-0.515-3.746c-0.814-0.884-2.197-1.327-4.15-1.327h-5.199  L87.497,34.395z"/>
<polygon fill="#2A2E41" points="123.315,10.123 151.77,10.123 149.492,17.929 131.06,17.929 126.619,33.146 141.271,33.146   138.994,40.952 124.343,40.952 119.675,56.951 138.107,56.951 135.832,64.756 107.377,64.756 "/>
<path fill="#2A2E41" d="M169.718,21.83l-2.606,22.868h-7.478c4.361,1.106,9.981,1.59,17.099,0.652l3.206-35.228h-13.423  l-15.27,31.007c1.91,1.24,4.476,2.504,7.808,3.414L169.718,21.83z"/>
<path fill="#2A2E41" d="M150.563,42.518l-10.951,22.238h10.02l5.703-12.097h10.777l-1.355,12.097h10.209l1.298-14.259  c-0.92,0.044-1.835,0.066-2.741,0.062C163.856,50.503,155.983,48.212,150.563,42.518"/>
<path fill="#2A2E41" d="M217.101,34.444c-0.148,0.117-0.298,0.235-0.444,0.341c-4.471,3.239-9.198,6.087-14.05,8.457  c-5.685,2.779-11.563,4.874-17.399,6.091l-4.266,14.62h11.777l4.887-16.193l8.915-5.888l9.703,22.244h14.23L217.101,34.444z"/>
<path fill="#00AF4C" d="M243.052,20.936l-3.782-4.416c0,0-35.692,29.277-59.588,31.568c0,0-21.079,4.416-33.066-11.123  c0,0,11.668,14.394,40.844,4.089l8.998-31.404h12.431l-6.994,24.535c0,0,14.646-7.034,32.934-24.862l-3.544-5.234L252.921,0"/>
<path fill="#00AF4C" d="M38.092,107.347c-0.337,0-0.674-0.066-1.011-0.27c-0.337-0.202-0.539-0.539-0.741-0.943  c-0.607-1.82-0.876-4.246-0.876-7.212c0-0.202,0-1.146,0.067-2.831c0.067-1.684,0.337-3.975,0.809-6.874  c0.067-0.539,0.336-0.943,0.809-1.213c0.337-0.27,0.673-0.337,1.078-0.337h0.337c0.471,0.135,0.876,0.405,1.213,0.809  c0.202,0.27,0.337,0.674,0.337,1.012l-0.067,0.403c-0.539,3.033-0.809,5.932-0.809,8.627c0,1.012,0.067,2.022,0.135,2.966  c0.337-0.74,0.674-1.753,1.145-3.101c1.012-3.505,1.955-7.212,2.831-11.054c0.876-4.313,1.685-7.48,2.427-9.436  c0.741-1.887,1.752-2.83,3.032-2.83h0.068c1.01,0,1.887,0.675,2.493,2.089c0.607,1.415,1.214,3.909,1.82,7.481  c0.337,2.022,0.539,3.977,0.741,5.796c0.338-1.415,0.742-2.83,1.079-4.246c1.011-3.64,1.955-6.537,2.763-8.762  c0.741-2.156,1.483-3.774,2.09-4.92c0.606-1.078,1.078-1.819,1.482-2.224c0.405-0.405,0.742-0.674,0.944-0.742  c0.471-0.269,0.944-0.471,1.483-0.471c0.337,0,0.741,0.135,1.145,0.337c0.742,0.337,1.416,1.348,1.887,3.033  c0.473,1.684,0.877,4.785,1.079,9.166c0.202,5.056,0.27,10.313,0.27,15.839v3.304c0,3.233,0,6.267,0.067,9.098  c0.067,2.83,0.135,4.651,0.337,5.527c0.135,0.269,0.202,0.539,0.202,0.808c0,0.135,0,0.404-0.067,0.674  c-0.068,0.337-0.337,0.606-0.674,0.944c-0.337,0.202-0.741,0.337-1.146,0.337c-0.607,0-1.078-0.269-1.483-0.742  c-0.337-0.337-0.539-0.942-0.674-1.887c-0.135-0.876-0.202-2.494-0.269-4.785c-0.068-2.292-0.068-5.594-0.068-9.974v-3.708  c0-4.919-0.067-9.706-0.202-14.356c-0.27-4.516-0.539-7.413-0.876-8.627c-1.011,1.618-2.561,5.797-4.516,12.604  c-1.011,3.707-1.752,6.875-2.291,9.503c-0.607,2.695-0.877,4.381-0.877,5.055v0.27c0,0.741-0.336,1.28-1.01,1.685  c-0.27,0.135-0.607,0.27-0.877,0.27c-0.135,0-0.337-0.067-0.674-0.135c-0.269-0.067-0.539-0.269-0.808-0.674  c-0.809-1.011-1.416-3.909-1.753-8.627c-0.202-2.696-0.607-5.593-1.078-8.761c-0.27-1.686-0.539-3.034-0.741-4.044  c-0.607,2.224-1.146,4.583-1.686,6.941c-1.28,5.863-2.493,10.514-3.774,13.816c-1.28,3.303-2.898,5.122-4.92,5.392H38.092z"/>
<path fill="#00AF4C" d="M72.599,94.339c-0.134-1.28-0.269-2.425-0.269-3.64c0-1.752,0.202-3.438,0.606-5.055  c-0.067-0.605-0.134-1.28-0.134-1.887c0-1.686,0.404-3.505,1.078-5.325c0.674-1.819,1.82-3.369,3.437-4.515  c1.348-0.944,2.764-1.417,4.246-1.417c1.416,0,2.899,0.472,4.448,1.281c3.573,1.955,5.595,5.393,6.134,10.313  c0.067,0.809,0.135,1.685,0.135,2.561c0,2.359-0.337,4.853-1.079,7.481c2.494-0.067,4.651-0.539,6.471-1.28  c1.819-0.741,2.965-1.618,3.504-2.629c0.202-0.472,0.607-0.741,1.079-0.943c0.202-0.067,0.404-0.135,0.606-0.135  c0.27,0,0.539,0.067,0.809,0.202c0.472,0.202,0.809,0.607,1.011,1.078c0.067,0.202,0.067,0.405,0.067,0.606  c0,0.27,0,0.539-0.134,0.81c-1.146,2.089-3.101,3.639-5.864,4.651c-2.629,0.942-5.459,1.414-8.492,1.414h-0.405  c-2.561,5.594-5.593,8.492-9.031,8.694c-0.337,0-0.674,0-1.011-0.066c-1.82-0.405-3.302-1.686-4.583-3.843  C73.88,100.337,73.004,97.507,72.599,94.339 M76.239,92.587c0.27,3.167,1.011,5.931,2.224,8.155c0.741,1.214,1.416,1.887,2.157,2.09  h0.202c1.416,0,3.1-1.752,5.055-5.325C81.765,96.699,78.531,95.082,76.239,92.587 M77.115,80.523  c-0.337,1.078-0.539,2.156-0.539,3.303c0,0.539,0.067,1.078,0.135,1.617v0.067c0.741,3.034,2.224,5.189,4.583,6.336  c2.359,1.213,4.313,1.887,5.998,2.021c0.809-2.493,1.214-4.92,1.214-7.347c0-0.809-0.068-2.224-0.27-4.179  c-0.203-1.954-1.55-3.707-4.044-5.257c-0.944-0.539-1.752-0.741-2.561-0.741s-1.483,0.202-2.157,0.674  C78.396,77.759,77.587,78.973,77.115,80.523"/>
<path fill="#00AF4C" d="M100.029,107.751c-0.337-0.337-0.539-0.809-0.539-1.28c0-4.313,0.269-9.503,0.876-15.637  c0.606-6.064,1.348-11.457,2.224-16.106c0.067-0.54,0.337-0.945,0.741-1.215c0.337-0.201,0.675-0.336,1.079-0.336  c0.067,0,0.202,0.067,0.337,0.067c0.539,0.068,0.943,0.337,1.213,0.809c0.27,0.337,0.337,0.676,0.337,1.079v0.337  c-0.944,4.92-1.685,10.581-2.224,16.984c0.876-2.09,1.887-4.111,3.033-6.134c1.348-2.628,3.235-5.459,5.594-8.627  c2.359-3.168,4.852-5.256,7.481-6.402c0.202-0.067,0.404-0.067,0.606-0.067c0.338,0,0.742,0.067,1.079,0.337  c0.539,0.337,0.808,0.876,0.808,1.482v0.337c0,0.202,0,0.674-0.067,1.281s-0.135,1.617-0.337,3.1  c-0.269,2.562-0.539,5.729-0.876,9.436c-0.337,3.707-0.607,7.549-0.741,11.391c-0.068,1.752-0.068,3.303-0.068,4.65  c0,1.888,0.068,3.64,0.135,5.392c0.135,1.687,0.337,2.966,0.607,3.842c0.269,0.876,0.472,1.416,0.674,1.552  c0.269,0.336,0.404,0.74,0.404,1.212v0.54c-0.067,0.269-0.27,0.539-0.674,0.875c-0.404,0.337-0.809,0.472-1.213,0.472  c-0.539,0-1.011-0.269-1.483-0.741c-0.674-0.605-1.28-2.156-1.752-4.649c-0.337-1.82-0.472-4.583-0.472-8.29  c0-1.551,0-3.168,0.068-4.988c0.471-8.357,1.01-15.367,1.617-21.028c0.067-0.066,0.067-0.066,0.067-0.135v-0.539  c-3.302,3.303-6.537,8.021-9.638,14.221c-3.1,6.269-4.987,11.525-5.661,15.771c-0.068,0.472-0.337,0.876-0.674,1.146  c-0.337,0.337-0.809,0.472-1.348,0.472C100.771,108.291,100.367,108.088,100.029,107.751"/>
<path fill="#00AF4C" d="M133.525,106.471c-3.37-1.213-5.594-3.572-6.672-7.01c-0.809-2.493-1.146-5.055-1.146-7.684  c0-0.942,0-1.887,0.134-2.897c0.405-3.841,1.483-7.279,3.236-10.313c1.685-3.032,4.111-4.718,7.145-5.122h0.471  c2.696,0,4.517,1.012,5.46,3.101c0.27,0.472,0.404,1.079,0.404,1.752c0,0.81-0.27,1.888-0.741,3.371  c-0.472,1.481-2.292,3.571-5.325,6.335c-2.493,2.089-4.852,3.639-7.009,4.516c0,2.426,0.404,4.583,1.28,6.537  c0.809,1.955,2.09,3.168,3.842,3.775c0.539,0.134,1.079,0.201,1.618,0.201c1.55,0,3.234-0.74,4.852-2.224  c1.686-1.416,3.102-3.235,4.381-5.46c1.281-2.223,2.091-3.842,2.494-4.92c0.202-0.539,0.473-0.876,0.944-1.078  c0.269-0.135,0.539-0.202,0.808-0.202c0.202,0,0.473,0.067,0.675,0.135c0.472,0.202,0.877,0.472,1.078,0.943  c0.135,0.271,0.135,0.539,0.135,0.809c0,0.202,0,0.472-0.067,0.675c-0.269,0.741-0.876,1.955-1.752,3.639  c-0.876,1.753-2.09,3.572-3.505,5.46c-1.887,2.291-3.707,3.908-5.393,4.785c-1.616,0.876-3.1,1.281-4.515,1.281h-0.203  C135.143,106.808,134.267,106.673,133.525,106.471 M132.38,80.523c-1.28,2.021-2.157,4.583-2.628,7.685  c1.279-0.743,2.694-1.753,4.245-3.034c2.156-1.954,3.505-3.504,4.111-4.717c0.472-0.876,0.674-1.552,0.674-2.023  c0-0.135,0-0.269-0.067-0.404c-0.336-0.539-0.943-0.809-1.888-0.809h-0.337C134.94,77.422,133.593,78.501,132.38,80.523"/>
<path fill="#00AF4C" d="M159.136,117.997c3.033-3.033,6.134-5.729,9.166-8.223c0.742-7.751,1.214-14.895,1.416-21.433  c-4.448,12.469-8.561,18.736-12.334,18.736h-0.337c-1.213,0-2.225-0.404-3.033-1.213c-0.81-0.809-1.415-1.686-1.887-2.629  c-0.473-0.876-0.81-1.617-1.012-2.156c-2.426-6.673-3.639-14.02-3.639-22.175V77.22c0.067-0.472,0.269-0.943,0.605-1.28  c0.338-0.337,0.81-0.539,1.349-0.539c0.539,0.067,1.011,0.27,1.348,0.606s0.473,0.809,0.473,1.348v0.876  c0,5.527,0.403,10.178,1.279,13.952c0.876,3.841,1.551,6.335,2.157,7.548c0.539,1.416,1.011,2.359,1.483,2.831  c0.403,0.472,0.674,0.741,0.876,0.741h0.066c0.068,0,0.203-0.067,0.405-0.134c0.202-0.068,0.472-0.271,0.809-0.607  s0.809-0.808,1.28-1.55c0.472-0.675,1.079-1.618,1.753-2.764c0.606-1.146,1.349-2.696,2.156-4.516  c1.281-2.897,2.359-5.863,3.37-8.762s1.753-5.324,2.358-7.212c0.337-0.943,0.539-1.685,0.742-2.156v-0.135  c0-0.067,0-0.067,0.067-0.067v-0.066c0.066-0.068,0.066-0.068,0.066-0.136l0.068-0.067c0-0.067,0-0.067,0.067-0.067v-0.067  l0.337-0.337c0.066,0,0.066,0,0.066-0.067c0.068,0,0.068,0,0.068-0.068h0.067c0.067-0.067,0.067-0.067,0.135-0.067h0.067  c0-0.067,0-0.067,0.067-0.067h0.068c0.066-0.067,0.066-0.067,0.134-0.067h0.068c0.066,0,0.066,0,0.066-0.067h0.674  c0.067,0,0.067,0,0.067,0.067h0.202c0.067,0,0.067,0,0.067,0.067h0.136c0,0.067,0,0.067,0.066,0.067c0.067,0,0.067,0,0.067,0.067  h0.068l0.066,0.068c0.067,0,0.067,0,0.135,0.067l0.136,0.136h0.066c0,0.066,0,0.066,0.068,0.134v0.067c0.066,0,0.066,0,0.066,0.067  c0.068,0,0.068,0,0.068,0.067l0.067,0.067v0.067l0.066,0.068v0.134c0.068,0,0.068,0,0.068,0.067v0.067l0.067,0.067v0.472  c0,3.168-0.067,7.481-0.202,12.806c-0.136,5.392-0.473,11.188-1.012,17.39c2.562-2.091,4.988-4.449,7.213-7.011  c2.224-2.561,4.178-5.594,5.862-9.099c0.202-0.472,0.607-0.741,1.079-0.943c0.202-0.067,0.404-0.135,0.606-0.135  c0.27,0,0.539,0.067,0.809,0.202c0.472,0.202,0.81,0.607,0.943,1.078c0.067,0.202,0.135,0.405,0.135,0.606  c0,0.27-0.067,0.539-0.202,0.81c-2.157,4.516-4.718,8.289-7.616,11.323c-2.897,3.032-5.998,5.931-9.301,8.559  c-0.876,8.56-2.359,16.445-4.313,23.523c-3.573,11.523-8.29,17.927-14.223,19.208c-0.336,0.066-0.673,0.066-1.01,0.066  c-2.224,0-4.112-1.011-5.527-3.101c-1.146-1.617-1.685-3.909-1.685-6.807c0-0.606,0.068-1.955,0.27-4.179  c0.202-2.225,1.82-6.066,4.987-11.391C153.204,124.669,156.104,121.029,159.136,117.997 M167.695,115.233  c-2.494,2.089-4.853,4.381-7.211,6.875c-2.358,2.493-4.65,5.526-6.808,8.964c-2.562,4.246-4.043,8.02-4.517,11.188  c-0.134,0.943-0.201,1.888-0.201,2.696c0,1.819,0.338,3.303,1.078,4.382c0.606,0.942,1.415,1.415,2.359,1.415  c0.134,0,0.337-0.068,0.471-0.068c1.552-0.202,3.37-1.55,5.46-4.179c2.09-2.561,3.977-6.671,5.729-12.334  C165.674,128.443,166.887,122.175,167.695,115.233"/>
</svg>