<svg viewBox="0 0 168 110" fill="none" xmlns="http://www.w3.org/2000/svg">
  <path
    d="M17.1479 44.0937C15.989 43.4726 15.2021 42.6104 14.786 41.5094C14.3699 40.4073 14.3688 39.1504 14.7832 37.7378L15.0935 36.6786L20.4881 36.2122L20.1658 37.3143C19.8512 38.3882 19.9117 39.2357 20.3485 39.8562C20.7848 40.4779 21.5526 40.7884 22.6526 40.7884C23.7171 40.7884 24.6431 40.5343 25.4279 40.0262C26.2127 39.5175 26.7335 38.8258 26.9898 37.9501C27.2717 36.9896 27.2057 36.0716 26.7924 35.1953C26.3779 34.3207 25.4023 33.1057 23.8649 31.5513C21.7964 29.4611 20.4756 27.7243 19.9019 26.3399C19.3282 24.956 19.2807 23.4445 19.7612 21.806C20.4151 19.5746 21.6732 17.8015 23.5361 16.4882C25.3979 15.1743 27.6191 14.5179 30.197 14.5179C32.7737 14.5179 34.6066 15.1819 35.6963 16.5093C36.7842 17.8373 37.0024 19.6175 36.3485 21.8478L36.1244 22.6111L30.7303 23.0775L30.9784 22.23C31.3095 21.0997 31.304 20.2381 30.9626 19.6447C30.6212 19.0518 29.9679 18.7554 29.0065 18.7554C28.0439 18.7554 27.2352 18.9953 26.5786 19.4753C25.922 19.9563 25.4579 20.6615 25.1847 21.5943C24.9115 22.5259 24.9916 23.4233 25.4273 24.2844C25.8614 25.1471 26.8229 26.3817 28.3101 27.9925C30.3453 30.1956 31.6558 31.9688 32.242 33.3103C32.8283 34.6519 32.8855 36.128 32.4138 37.7378C31.9993 39.1504 31.2615 40.4073 30.2002 41.5094C29.1384 42.6104 27.8465 43.4726 26.3239 44.0937C24.8018 44.7148 23.1811 45.0264 21.4627 45.0264C19.7443 45.0269 18.3062 44.7148 17.1479 44.0937Z"
    fill="#2A2E41"></path>
  <path
    d="M40.5373 14.9414H57.9617L56.7199 19.1794H50.7396L43.2896 44.6024H37.8258L45.2758 19.1794H39.2955L40.5373 14.9414Z"
    fill="#2A2E41"></path>
  <path
    d="M64.477 44.6024L64.0958 32.3575H61.2605L57.6721 44.6024H52.2078L60.8995 14.942H69.4571C72.0682 14.942 73.96 15.5854 75.1304 16.8699C76.2996 18.1555 76.5701 19.8717 75.9413 22.0183L74.9853 25.2807C74.5877 26.6369 73.9088 27.8373 72.9501 28.8824C71.9902 29.928 70.8221 30.7467 69.4457 31.3407L70.1475 44.6024H64.477ZM62.5023 28.119H65.3375C66.4021 28.119 67.297 27.8801 68.0234 27.3986C68.7481 26.9192 69.239 26.2411 69.4958 25.3648L70.5014 21.9331C70.7578 21.0579 70.664 20.3798 70.2206 19.8993C69.7767 19.4194 69.0225 19.1789 67.9574 19.1789H65.1221L62.5023 28.119Z"
    fill="#2A2E41"></path>
  <path
    d="M82.0359 14.9414H97.5532L96.3109 19.1794H86.259L83.8371 27.4414H91.8281L90.5858 31.6789H82.5959L80.0502 40.3649H90.1026L88.8614 44.6024H73.3441L82.0359 14.9414Z"
    fill="#2A2E41"></path>
  <path
    d="M107.341 21.2978L105.92 33.7132H101.842C104.22 34.3136 107.285 34.5764 111.167 34.0671L112.915 14.9414H105.595L97.2676 31.7755C98.3092 32.4487 99.7086 33.135 101.526 33.629L107.341 21.2978Z"
    fill="#2A2E41"></path>
  <path
    d="M96.8958 32.5292L90.9237 44.6025H96.3881L99.4982 38.0349H105.375L104.636 44.6025H110.204L110.912 36.8611C110.41 36.885 109.911 36.8969 109.417 36.8947C104.145 36.8643 99.8516 35.6205 96.8958 32.5292Z"
    fill="#2A2E41"></path>
  <path
    d="M133.181 28.1462C133.101 28.2098 133.019 28.2738 132.939 28.3314C130.501 30.0899 127.923 31.6361 125.277 32.9228C122.177 34.4315 118.971 35.5689 115.789 36.2296L113.462 44.167H119.885L122.55 35.3756L127.412 32.179L132.703 44.2555H140.463L133.181 28.1462Z"
    fill="#2A2E41"></path>
  <path
    d="M121.923 14.6847H128.702L124.888 28.005C124.888 28.005 132.875 24.1862 142.849 14.5071L140.916 11.6655L152.716 9.44556L147.334 20.812L145.272 18.4145C145.272 18.4145 125.807 34.3093 112.775 35.5531C112.775 35.5531 101.28 37.9507 94.743 29.5143C94.743 29.5143 101.106 37.329 117.017 31.7343L121.923 14.6847Z"
    fill="#00AF4C"></path>
  <path
    d="M35.5599 67.7259C35.3761 67.7259 35.1923 67.6901 35.0085 67.5794C34.8248 67.4697 34.7146 67.2867 34.6044 67.0674C34.2734 66.0793 34.1267 64.7622 34.1267 63.1519C34.1267 63.0422 34.1267 62.5297 34.1632 61.6149C34.1998 60.7007 34.347 59.4569 34.6044 57.8829C34.641 57.5903 34.7877 57.371 35.0456 57.2244C35.2294 57.0778 35.4126 57.0414 35.6335 57.0414H35.8173C36.0741 57.1147 36.295 57.2613 36.4788 57.4807C36.589 57.6272 36.6626 57.8466 36.6626 58.0301L36.626 58.2489C36.3321 59.8955 36.1848 61.4694 36.1848 62.9326C36.1848 63.482 36.2214 64.0303 36.2585 64.5428C36.4423 64.1411 36.626 63.5911 36.8829 62.8593C37.4348 60.9564 37.949 58.9438 38.4268 56.8579C38.9045 54.5164 39.3457 52.797 39.7503 51.735C40.1544 50.7105 40.7058 50.1986 41.4038 50.1986H41.4409C41.9917 50.1986 42.47 50.565 42.8005 51.3327C43.1315 52.1009 43.4625 53.455 43.793 55.3942C43.9768 56.492 44.0869 57.5534 44.1971 58.541C44.3814 57.7727 44.6017 57.0045 44.7855 56.2358C45.3369 54.2596 45.8517 52.6867 46.2923 51.4788C46.6964 50.3082 47.1011 49.4298 47.4321 48.8076C47.7626 48.2224 48.02 47.8201 48.2403 47.6002C48.4612 47.3803 48.6449 47.2343 48.7551 47.1974C49.012 47.0513 49.2699 46.9417 49.5639 46.9417C49.7476 46.9417 49.968 47.0149 50.1883 47.1246C50.5929 47.3076 50.9605 47.8565 51.2173 48.7713C51.4753 49.6855 51.6956 51.3691 51.8058 53.7476C51.9159 56.4926 51.953 59.3466 51.953 62.3468V64.1406C51.953 65.8958 51.953 67.543 51.9896 69.08C52.0261 70.6164 52.0632 71.605 52.1733 72.0806C52.247 72.2267 52.2835 72.3733 52.2835 72.5193C52.2835 72.5926 52.2835 72.7387 52.247 72.8852C52.2099 73.0682 52.0632 73.2142 51.8794 73.3977C51.6956 73.5074 51.4753 73.5807 51.2544 73.5807C50.9234 73.5807 50.6665 73.4347 50.4457 73.1779C50.2619 72.9949 50.1517 72.6664 50.0781 72.1534C50.0045 71.6778 49.968 70.7994 49.9314 69.5556C49.8943 68.3112 49.8943 66.5185 49.8943 64.1406V62.1274C49.8943 59.4569 49.8578 56.8579 49.7842 54.3334C49.6369 51.8816 49.4902 50.3088 49.3064 49.6497C48.7551 50.5281 47.9098 52.797 46.8437 56.4926C46.2923 58.5051 45.8882 60.2251 45.5943 61.6518C45.2632 63.115 45.116 64.0303 45.116 64.3963V64.5428C45.116 64.9451 44.9328 65.2378 44.5652 65.4577C44.418 65.531 44.2342 65.6042 44.0869 65.6042C44.0133 65.6042 43.9031 65.5679 43.7194 65.531C43.5727 65.4946 43.4254 65.3849 43.2787 65.165C42.8375 64.6161 42.5065 63.0428 42.3227 60.4813C42.2126 59.0176 41.9917 57.4448 41.7348 55.7249C41.5876 54.8095 41.4409 54.0777 41.3307 53.5293C40.9997 54.7368 40.7058 56.0175 40.4113 57.2977C39.7132 60.4808 39.0517 63.0059 38.3532 64.7986C37.6551 66.5918 36.7727 67.5794 35.67 67.7259H35.5599Z"
    fill="#00AF4C"></path>
  <path
    d="M54.3777 60.6639C54.3046 59.969 54.231 59.3474 54.231 58.6877C54.231 57.7365 54.3411 56.8212 54.5614 55.9433C54.5249 55.6148 54.4884 55.2484 54.4884 54.9188C54.4884 54.0035 54.7087 53.0159 55.0762 52.0278C55.4438 51.0403 56.0688 50.1987 56.9506 49.5766C57.6857 49.064 58.4579 48.8073 59.2661 48.8073C60.0384 48.8073 60.8471 49.0635 61.6919 49.5027C63.6404 50.5641 64.7431 52.4307 65.037 55.1018C65.0736 55.541 65.1106 56.0166 65.1106 56.4922C65.1106 57.7729 64.9269 59.1269 64.5222 60.5537C65.8823 60.5173 67.0586 60.2611 68.0511 59.8588C69.0431 59.4565 69.6681 58.9804 69.962 58.4315C70.0722 58.1752 70.2931 58.0292 70.5505 57.9195C70.6606 57.8831 70.7708 57.8462 70.881 57.8462C71.0282 57.8462 71.1749 57.8826 71.3221 57.9559C71.5795 58.0655 71.7633 58.2854 71.8735 58.5411C71.91 58.6508 71.91 58.761 71.91 58.8701C71.91 59.0167 71.91 59.1628 71.8369 59.3099C71.212 60.444 70.1458 61.2856 68.639 61.835C67.2053 62.3464 65.662 62.6027 64.0079 62.6027H63.7871C62.3904 65.6397 60.7369 67.2131 58.862 67.3228C58.6783 67.3228 58.4945 67.3228 58.3107 67.2869C57.3182 67.067 56.51 66.3716 55.8114 65.2005C55.0762 63.9203 54.5985 62.3839 54.3777 60.6639ZM56.3627 59.7127C56.51 61.4322 56.9141 62.9328 57.5756 64.1402C57.9797 64.7993 58.3478 65.1647 58.7519 65.2749H58.862C59.6343 65.2749 60.5526 64.3237 61.6188 62.3839C59.3763 61.9447 57.6127 61.0668 56.3627 59.7127ZM56.8404 53.1625C56.6567 53.7478 56.5465 54.333 56.5465 54.9557C56.5465 55.2484 56.583 55.541 56.6201 55.8336V55.87C57.0242 57.5172 57.833 58.6872 59.1194 59.3099C60.4059 59.9685 61.4715 60.3344 62.3904 60.4071C62.8316 59.0536 63.0525 57.736 63.0525 56.4183C63.0525 55.9791 63.0154 55.2109 62.9052 54.1495C62.7945 53.0887 62.06 52.1369 60.6999 51.2954C60.1851 51.0028 59.7444 50.8931 59.3032 50.8931C58.862 50.8931 58.4945 51.0028 58.1269 51.259C57.539 51.6624 57.0978 52.3215 56.8404 53.1625Z"
    fill="#00AF4C"></path>
  <path
    d="M69.3369 67.9455C69.1531 67.7626 69.043 67.5063 69.043 67.2506C69.043 64.909 69.1897 62.0913 69.5207 58.7611C69.8512 55.4689 70.2558 52.5409 70.7335 50.0169C70.7701 49.7238 70.9173 49.5039 71.1377 49.3573C71.3214 49.2482 71.5058 49.1749 71.7261 49.1749C71.7626 49.1749 71.8362 49.2112 71.9099 49.2112C72.2038 49.2482 72.4241 49.3942 72.5714 49.6505C72.7186 49.8334 72.7551 50.0175 72.7551 50.2363V50.4192C72.2403 53.0904 71.8362 56.1638 71.5423 59.6401C72.02 58.5054 72.5714 57.4081 73.1963 56.3098C73.9315 54.8831 74.9605 53.3461 76.247 51.6261C77.5335 49.9062 78.893 48.7726 80.3268 48.1504C80.4369 48.114 80.5471 48.114 80.6572 48.114C80.8416 48.114 81.0619 48.1504 81.2457 48.297C81.5396 48.4799 81.6863 48.7726 81.6863 49.1016V49.2845C81.6863 49.3942 81.6863 49.6505 81.6498 49.98C81.6132 50.3096 81.5761 50.8579 81.466 51.663C81.3193 53.054 81.172 54.7734 80.9883 56.786C80.8045 58.7985 80.6572 60.8844 80.5842 62.9703C80.5471 63.9215 80.5471 64.7635 80.5471 65.4948C80.5471 66.5199 80.5842 67.471 80.6207 68.4222C80.6943 69.3381 80.8045 70.0325 80.9517 70.5081C81.0984 70.9837 81.2091 71.2769 81.3193 71.3507C81.466 71.5331 81.5396 71.7525 81.5396 72.0087V72.3019C81.5031 72.4479 81.3924 72.5945 81.172 72.7769C80.9517 72.9599 80.7309 73.0332 80.5105 73.0332C80.2166 73.0332 79.9592 72.8871 79.7018 72.6309C79.3342 72.3024 79.0037 71.4604 78.7463 70.1069C78.5626 69.1188 78.4889 67.6187 78.4889 65.6061C78.4889 64.7641 78.4889 63.8862 78.526 62.8981C78.7829 58.361 79.0768 54.5551 79.4078 51.4817C79.4444 51.4459 79.4444 51.4459 79.4444 51.4084V51.1158C77.6436 52.909 75.8794 55.4705 74.1883 58.8366C72.4977 62.2401 71.4687 65.0936 71.1011 67.3988C71.064 67.6551 70.9173 67.8744 70.7335 68.021C70.5498 68.204 70.2924 68.2773 69.9984 68.2773C69.741 68.2382 69.5207 68.1285 69.3369 67.9455Z"
    fill="#00AF4C"></path>
  <path
    d="M87.6041 67.2507C85.7663 66.5921 84.5534 65.3114 83.9655 63.4448C83.5244 62.0914 83.3406 60.7004 83.3406 59.2731C83.3406 58.7617 83.3406 58.2486 83.4137 57.7003C83.6345 55.615 84.2224 53.7484 85.1784 52.1012C86.0973 50.4551 87.4203 49.5398 89.0749 49.3204H89.3318C90.802 49.3204 91.7951 49.8699 92.3094 51.004C92.4566 51.2603 92.5297 51.5898 92.5297 51.9552C92.5297 52.3949 92.3824 52.9802 92.1256 53.7853C91.8682 54.5894 90.8756 55.7241 89.2216 57.2247C87.862 58.3588 86.5756 59.2004 85.3993 59.6765C85.3993 60.9936 85.6196 62.1647 86.0973 63.2255C86.5385 64.2869 87.2371 64.9454 88.1925 65.275C88.4865 65.3477 88.781 65.3841 89.0749 65.3841C89.9202 65.3841 90.8386 64.9824 91.7209 64.1767C92.6404 63.4079 93.4126 62.4204 94.1101 61.2124C94.8087 60.0055 95.2504 59.1265 95.4702 58.5413C95.5803 58.2486 95.7281 58.0657 95.985 57.956C96.1317 57.8827 96.2789 57.8463 96.4256 57.8463C96.5358 57.8463 96.6836 57.8827 96.7937 57.9196C97.0511 58.0293 97.272 58.1759 97.3816 58.4316C97.4552 58.5787 97.4552 58.7242 97.4552 58.8708C97.4552 58.9805 97.4552 59.1271 97.4187 59.2373C97.272 59.6396 96.941 60.2987 96.4633 61.2129C95.9855 62.1647 95.3235 63.1522 94.5518 64.1772C93.5227 65.421 92.5302 66.2989 91.6108 66.7751C90.7295 67.2507 89.9202 67.4705 89.1485 67.4705H89.0378C88.4859 67.4336 88.0082 67.3603 87.6041 67.2507ZM86.9791 53.1626C86.2811 54.2599 85.8028 55.6508 85.546 57.3349C86.2435 56.9315 87.0151 56.3832 87.861 55.6877C89.0367 54.6269 89.7724 53.7853 90.1029 53.1268C90.3603 52.6512 90.4704 52.2842 90.4704 52.0285C90.4704 51.9552 90.4704 51.8824 90.4339 51.8091C90.2507 51.5165 89.9196 51.3699 89.4043 51.3699H89.2205C88.3758 51.4796 87.6406 52.0654 86.9791 53.1626Z"
    fill="#00AF4C"></path>
  <path
    d="M101.57 73.5075C103.224 71.8608 104.916 70.3971 106.569 69.0431C106.974 64.835 107.231 60.9565 107.341 57.4069C104.916 64.1765 102.673 67.5789 100.615 67.5789H100.431C99.7697 67.5789 99.2178 67.3596 98.7772 66.9204C98.3354 66.4811 98.0055 66.005 97.7481 65.493C97.4901 65.0174 97.3064 64.6151 97.1962 64.3225C95.8732 60.6997 95.2117 56.7109 95.2117 52.2835V51.3687C95.2482 51.1124 95.3584 50.8567 95.5416 50.6737C95.7259 50.4908 95.9833 50.3811 96.2773 50.3811C96.5712 50.4175 96.8286 50.5277 97.0124 50.7101C97.1962 50.8925 97.2704 51.1493 97.2704 51.4419V51.9175C97.2704 54.9182 97.4901 57.4433 97.9679 59.4922C98.4456 61.5776 98.8137 62.9316 99.1442 63.5901C99.4381 64.3589 99.6955 64.8709 99.9529 65.1271C100.173 65.3834 100.32 65.5294 100.431 65.5294H100.467C100.504 65.5294 100.577 65.493 100.688 65.4567C100.798 65.4197 100.945 65.3095 101.129 65.1271C101.312 64.9447 101.57 64.6884 101.827 64.2856C102.084 63.9191 102.415 63.4072 102.783 62.785C103.113 62.1628 103.518 61.3213 103.959 60.3332C104.657 58.7604 105.245 57.1501 105.796 55.5762C106.348 54.0023 106.752 52.6858 107.082 51.6607C107.266 51.1488 107.376 50.7459 107.487 50.4902V50.4169C107.487 50.3806 107.487 50.3806 107.523 50.3806V50.3447C107.559 50.3078 107.559 50.3078 107.559 50.2709L107.597 50.2345C107.597 50.1981 107.597 50.1981 107.633 50.1981V50.1618L107.817 49.9788C107.853 49.9788 107.853 49.9788 107.853 49.9424C107.89 49.9424 107.89 49.9424 107.89 49.9055H107.926C107.963 49.8691 107.963 49.8691 108 49.8691H108.037C108.037 49.8328 108.037 49.8328 108.073 49.8328H108.11C108.146 49.7964 108.146 49.7964 108.183 49.7964H108.22C108.256 49.7964 108.256 49.7964 108.256 49.76H108.624C108.66 49.76 108.66 49.76 108.66 49.7964H108.771C108.807 49.7964 108.807 49.7964 108.807 49.8328H108.881C108.881 49.8691 108.881 49.8691 108.917 49.8691C108.954 49.8691 108.954 49.8691 108.954 49.9055H108.991L109.027 49.9424C109.063 49.9424 109.064 49.9424 109.101 49.9788L109.175 50.0526H109.211C109.211 50.0885 109.211 50.0885 109.248 50.1254V50.1618C109.284 50.1618 109.284 50.1618 109.284 50.1981C109.321 50.1981 109.321 50.1981 109.321 50.2345L109.357 50.2709V50.3073L109.393 50.3442V50.4169C109.431 50.4169 109.431 50.4169 109.431 50.4533V50.4897L109.467 50.5261V50.7823C109.467 52.5023 109.431 54.8438 109.357 57.7348C109.283 60.6622 109.099 63.8089 108.805 67.1761C110.202 66.0408 111.525 64.7606 112.739 63.3697C113.951 61.9793 115.017 60.3327 115.935 58.4298C116.046 58.1735 116.266 58.0275 116.524 57.9178C116.634 57.8814 116.744 57.8445 116.854 57.8445C117.002 57.8445 117.148 57.8809 117.296 57.9542C117.553 58.0638 117.737 58.2837 117.81 58.5394C117.846 58.6491 117.883 58.7593 117.883 58.8684C117.883 59.015 117.847 59.1611 117.773 59.3082C116.597 61.76 115.2 63.8084 113.62 65.4556C112.04 67.1017 110.349 68.6756 108.548 70.1024C108.07 74.7497 107.261 79.0305 106.196 82.8732C104.247 89.1292 101.675 92.606 98.439 93.3015C98.2558 93.3373 98.072 93.3373 97.8882 93.3373C96.6754 93.3373 95.6458 92.7884 94.8741 91.6538C94.2491 90.7759 93.9552 89.5315 93.9552 87.9582C93.9552 87.6292 93.9923 86.8968 94.1024 85.6893C94.2126 84.4814 95.095 82.396 96.8221 79.505C98.3354 77.1303 99.9169 75.1536 101.57 73.5075ZM106.239 72.0069C104.879 73.141 103.592 74.3854 102.306 75.7394C101.02 77.0929 99.7702 78.7395 98.5934 80.6061C97.1962 82.9113 96.3885 84.9602 96.13 86.6801C96.057 87.1921 96.0204 87.7052 96.0204 88.1438C96.0204 89.1314 96.2048 89.9371 96.6083 90.5229C96.9388 91.0343 97.38 91.2911 97.8948 91.2911C97.9679 91.2911 98.0786 91.2542 98.1516 91.2542C98.998 91.1445 99.9895 90.4127 101.129 88.9854C102.269 87.595 103.298 85.3636 104.254 82.2891C105.136 79.1787 105.797 75.7763 106.239 72.0069Z"
    fill="#00AF4C"></path>
</svg>